# File created by Blade
# Date/Time:  Wed Jan 21 18:02:19 2015
# Frame Rate: 120.000 fps
#------------------------------------------------------
:FULLY-SPECIFIED
:DEGREES
599
root 21.231569 35.896662 -20.625963 -173.378828 5.456172 -173.589551
Spine -10.914885 10.468438 -1.108408
Head -2.695610 -10.451224 8.357652
LeftShoulder -5.212664 -20.534653 0.952504
LeftArm -13.897552 16.715624 -77.436955
LeftForeArm -3.390871 -0.000000 11.555512
LeftHand -0.399802 -0.000000 2.459126
LeftHandThumb1 -26.253704 0.000000 33.147579
RightShoulder -6.535823 -14.857921 13.226994
RightArm 36.987410 -42.603086 42.734315
RightForeArm -31.254048 0.000000 24.640141
RightHand 1.999764 -0.000000 12.900878
RightHandThumb1 -24.326973 -0.000000 -32.862282
LeftUpLeg -6.506952 2.820215 1.136429
LeftLeg 9.651542 -0.000000 -0.000000
LeftFoot -25.822411 27.140650 -7.428654
LeftToeBase 20.789336 -0.000000 -0.000000
RightUpLeg -12.659850 -12.426799 11.877098
RightLeg 16.347599 -0.000000 -0.000000
RightFoot -21.645498 -26.736467 21.459386
RightToeBase 15.932440 -0.000000 -0.000000
600
root 21.304634 35.859759 -20.682854 -173.401181 5.153599 -174.035422
Spine -11.213515 10.360472 -1.642087
Head -2.268873 -10.466986 8.145281
LeftShoulder -5.415723 -20.446820 0.816785
LeftArm -13.785457 16.839092 -77.309279
LeftForeArm -3.235799 -0.000000 11.701244
LeftHand -0.453234 -0.000000 2.102209
LeftHandThumb1 -26.253704 0.000000 33.147579
RightShoulder -6.668803 -14.958940 13.101627
RightArm 36.648669 -42.733062 43.221917
RightForeArm -31.016090 -0.000000 24.769323
RightHand 1.938115 -0.000000 13.271074
RightHandThumb1 -24.326973 -0.000000 -32.862282
LeftUpLeg -6.597199 2.514575 0.831639
LeftLeg 9.927652 -0.000000 -0.000000
LeftFoot -26.146823 27.113410 -7.727332
LeftToeBase 20.699467 -0.000000 -0.000000
RightUpLeg -11.719000 -12.841082 11.587361
RightLeg 14.555714 -0.000000 -0.000000
RightFoot -21.915645 -27.180075 20.635104
RightToeBase 16.952666 -0.000000 -0.000000
601
root 21.375614 35.825293 -20.734154 -173.389605 4.803701 -174.519205
Spine -11.523562 10.163833 -2.217253
Head -1.904834 -10.537032 7.953428
LeftShoulder -5.632339 -20.431451 0.633551
LeftArm -13.755177 17.087203 -77.141193
LeftForeArm -3.052077 -0.000000 11.873772
LeftHand -0.598205 -0.000000 1.726594
LeftHandThumb1 -26.253704 0.000000 33.147579
RightShoulder -6.812140 -15.174353 13.087210
RightArm 36.411645 -42.698038 43.606591
RightForeArm -30.941400 -0.000000 24.873458
RightHand 1.931209 -0.000000 13.560387
RightHandThumb1 -24.326973 -0.000000 -32.862282
LeftUpLeg -6.680718 1.890511 0.513020
LeftLeg 10.113738 -0.000000 -0.000000
LeftFoot -26.398285 27.296529 -8.026431
LeftToeBase 20.471497 -0.000000 -0.000000
RightUpLeg -10.856616 -13.207752 11.247455
RightLeg 12.874049 -0.000000 -0.000000
RightFoot -22.010859 -27.153904 19.650260
RightToeBase 17.289608 -0.000000 -0.000000
602
root 21.449507 35.791454 -20.792900 -173.319400 4.528957 -174.881296
Spine -11.925174 10.091598 -2.666048
Head -1.517102 -10.636030 7.713417
LeftShoulder -5.885041 -20.253709 0.393157
LeftArm -13.597988 17.459050 -76.941861
LeftForeArm -3.121983 -0.000000 12.032270
LeftHand -0.720509 -0.000000 1.499717
LeftHandThumb1 -26.253704 0.000000 33.147579
RightShoulder -7.023682 -15.354049 13.064820
RightArm 36.134610 -42.730777 43.972441
RightForeArm -30.846726 0.000000 24.982999
RightHand 1.813004 -0.000000 13.875473
RightHandThumb1 -24.326973 -0.000000 -32.862282
LeftUpLeg -6.991473 1.935229 0.283624
LeftLeg 10.668141 -0.000000 -0.000000
LeftFoot -26.790464 26.942874 -8.277696
LeftToeBase 20.191981 -0.000000 -0.000000
RightUpLeg -10.158575 -13.764463 11.040027
RightLeg 11.503509 -0.000000 -0.000000
RightFoot -22.303783 -26.787783 19.132152
RightToeBase 17.845498 -0.000000 -0.000000
603
root 21.524226 35.755320 -20.828850 -173.278900 4.384492 -175.267181
Spine -12.189516 10.101311 -3.149536
Head -1.193677 -10.664467 7.482883
LeftShoulder -6.060652 -20.325526 0.143056
LeftArm -13.581459 17.717662 -76.714900
LeftForeArm -3.309977 -0.000000 12.099375
LeftHand -0.786183 0.000000 1.115685
LeftHandThumb1 -26.253704 0.000000 33.147579
RightShoulder -7.072874 -15.402325 12.973126
RightArm 35.693292 -42.666618 44.595493
RightForeArm -30.929338 0.000000 24.992283
RightHand 1.865181 -0.000000 14.079591
RightHandThumb1 -24.326973 -0.000000 -32.862282
LeftUpLeg -7.263121 1.872514 0.033054
LeftLeg 11.175475 -0.000000 -0.000000
LeftFoot -27.159399 26.768480 -8.509724
LeftToeBase 19.937050 -0.000000 -0.000000
RightUpLeg -9.626427 -14.061756 10.786812
RightLeg 10.520506 -0.000000 -0.000000
RightFoot -22.680472 -26.547734 18.705761
RightToeBase 18.466994 -0.000000 -0.000000
604
root 21.600657 35.718116 -20.852602 -173.259191 4.346943 -175.568022
Spine -12.357939 10.207396 -3.519847
Head -0.969725 -10.661912 7.209970
LeftShoulder -6.238667 -20.333564 -0.168543
LeftArm -13.470692 18.004671 -76.457400
LeftForeArm -3.444927 -0.000000 12.222561
LeftHand -0.896051 -0.000000 0.808259
LeftHandThumb1 -26.253704 0.000000 33.147579
RightShoulder -7.055177 -15.343260 12.837438
RightArm 35.206003 -42.645358 45.226589
RightForeArm -30.773369 0.000000 25.011425
RightHand 1.721596 0.000000 14.219921
RightHandThumb1 -24.326973 -0.000000 -32.862282
LeftUpLeg -7.612698 2.044610 -0.144109
LeftLeg 11.875230 -0.000000 -0.000000
LeftFoot -27.588091 26.479394 -8.673954
LeftToeBase 19.708686 -0.000000 -0.000000
RightUpLeg -9.193605 -14.042350 10.569542
RightLeg 9.829054 -0.000000 -0.000000
RightFoot -23.094233 -26.279569 18.419610
RightToeBase 19.055253 -0.000000 -0.000000
605
root 21.671178 35.684745 -20.866525 -173.161885 4.389772 -175.924783
Spine -12.612614 10.366395 -3.979653
Head -0.724323 -10.620572 6.964894
LeftShoulder -6.390402 -20.375624 -0.468647
LeftArm -13.419142 18.171608 -76.182704
LeftForeArm -3.493269 -0.000000 12.332485
LeftHand -0.886720 -0.000000 0.290868
LeftHandThumb1 -26.253704 0.000000 33.147579
RightShoulder -7.086298 -15.370974 12.744054
RightArm 34.793825 -42.469181 45.879481
RightForeArm -30.862235 -0.000000 24.964012
RightHand 1.735790 -0.000000 14.392402
RightHandThumb1 -24.326973 -0.000000 -32.862282
LeftUpLeg -7.924120 1.747728 -0.382081
LeftLeg 12.341260 -0.000000 -0.000000
LeftFoot -27.946500 26.652254 -9.029712
LeftToeBase 19.414754 -0.000000 -0.000000
RightUpLeg -8.965292 -13.728752 10.270421
RightLeg 9.382252 -0.000000 -0.000000
RightFoot -23.625087 -26.042166 18.243777
RightToeBase 19.665049 -0.000000 -0.000000
606
root 21.734669 35.651191 -20.870567 -172.956613 4.499855 -176.235525
Spine -12.970151 10.581062 -4.390281
Head -0.527130 -10.623961 6.680043
LeftShoulder -6.574439 -20.433532 -0.756779
LeftArm -13.360679 18.424734 -75.953718
LeftForeArm -3.479930 0.000000 12.397924
LeftHand -1.041929 -0.000000 0.215251
LeftHandThumb1 -26.253704 0.000000 33.147579
RightShoulder -7.085897 -15.321508 12.572063
RightArm 34.374263 -42.426253 46.504315
RightForeArm -30.827019 0.000000 24.861775
RightHand 1.771224 -0.000000 14.421284
RightHandThumb1 -24.326973 -0.000000 -32.862282
LeftUpLeg -8.391027 1.442554 -0.590549
LeftLeg 12.890791 -0.000000 -0.000000
LeftFoot -28.338090 26.892927 -9.354254
LeftToeBase 19.117223 -0.000000 -0.000000
RightUpLeg -8.937578 -13.413937 10.034062
RightLeg 9.031373 -0.000000 -0.000000
RightFoot -24.032563 -25.856030 17.893830
RightToeBase 20.327088 -0.000000 -0.000000
607
root 21.802518 35.617979 -20.871675 -172.789942 4.609233 -176.461159
Spine -13.255958 10.758555 -4.656097
Head -0.309926 -10.595064 6.311996
LeftShoulder -6.776432 -20.434484 -1.047376
LeftArm -13.210036 18.668624 -75.747377
LeftForeArm -3.719535 0.000000 12.336785
LeftHand -1.042415 0.000000 0.369409
LeftHandThumb1 -26.253704 0.000000 33.147579
RightShoulder -7.025928 -15.345009 12.348432
RightArm 34.009630 -42.252494 47.164759
RightForeArm -30.845560 0.000000 24.745095
RightHand 1.643388 0.000000 14.490417
RightHandThumb1 -24.326973 -0.000000 -32.862282
LeftUpLeg -8.840197 1.164935 -0.707845
LeftLeg 13.479534 -0.000000 -0.000000
LeftFoot -28.722555 27.170347 -9.553814
LeftToeBase 18.887929 -0.000000 -0.000000
RightUpLeg -8.943038 -13.276691 9.909176
RightLeg 8.782951 -0.000000 -0.000000
RightFoot -24.382616 -25.619657 17.606593
RightToeBase 20.863375 -0.000000 -0.000000
608
root 21.871824 35.586253 -20.867656 -172.600855 4.768021 -176.624520
Spine -13.544757 11.010979 -4.880606
Head -0.107971 -10.520431 5.959793
LeftShoulder -6.985190 -20.398043 -1.321507
LeftArm -12.932676 18.931319 -75.542891
LeftForeArm -3.661805 -0.000000 12.177976
LeftHand -1.047096 -0.000000 -0.003937
LeftHandThumb1 -26.253704 0.000000 33.147579
RightShoulder -7.002882 -15.380992 12.112354
RightArm 33.716483 -42.072485 47.792362
RightForeArm -30.825112 -0.000000 24.524367
RightHand 1.777844 -0.000000 14.350384
RightHandThumb1 -24.326973 -0.000000 -32.862282
LeftUpLeg -9.330287 0.958880 -0.765113
LeftLeg 14.111120 -0.000000 -0.000000
LeftFoot -29.120983 27.388064 -9.769363
LeftToeBase 18.595803 -0.000000 -0.000000
RightUpLeg -8.764875 -12.492928 9.829142
RightLeg 8.127721 -0.000000 -0.000000
RightFoot -24.682123 -26.194199 17.332978
RightToeBase 21.313117 -0.000000 -0.000000
609
root 21.940051 35.556025 -20.867008 -172.469799 4.946411 -176.742928
Spine -13.730695 11.238231 -5.016786
Head -0.034676 -10.425051 5.665483
LeftShoulder -7.219069 -20.533140 -1.528254
LeftArm -12.886873 19.095562 -75.459834
LeftForeArm -3.506438 0.000000 12.060912
LeftHand -0.997907 0.000000 -0.341347
LeftHandThumb1 -26.253704 0.000000 33.147579
RightShoulder -6.920458 -15.385928 11.859888
RightArm 33.438603 -41.917109 48.342814
RightForeArm -30.694824 0.000000 24.393689
RightHand 1.682436 -0.000000 14.350897
RightHandThumb1 -24.326973 -0.000000 -32.862282
LeftUpLeg -9.738770 0.760177 -0.776645
LeftLeg 14.719106 -0.000000 -0.000000
LeftFoot -29.529735 27.630937 -9.962327
LeftToeBase 18.332783 -0.000000 -0.000000
RightUpLeg -8.647351 -12.043317 9.821433
RightLeg 7.682675 -0.000000 -0.000000
RightFoot -24.921612 -26.578357 17.011558
RightToeBase 21.742972 -0.000000 -0.000000
610
root 22.011216 35.526879 -20.867573 -172.455814 5.026400 -176.807983
Spine -13.747439 11.416805 -5.049680
Head 0.123290 -10.296246 5.269611
LeftShoulder -7.423921 -20.544810 -1.771011
LeftArm -12.652998 19.242444 -75.332708
LeftForeArm -3.617119 0.000000 11.940331
LeftHand -1.070050 -0.000000 -0.102913
LeftHandThumb1 -26.253704 0.000000 33.147579
RightShoulder -6.863506 -15.440890 11.617844
RightArm 33.330218 -41.735567 48.749650
RightForeArm -30.613914 0.000000 24.180095
RightHand 1.595569 -0.000000 14.205321
RightHandThumb1 -24.326973 -0.000000 -32.862282
LeftUpLeg -10.046563 0.518010 -0.716051
LeftLeg 15.349665 -0.000000 -0.000000
LeftFoot -29.916167 27.866236 -10.099389
LeftToeBase 18.077839 -0.000000 -0.000000
RightUpLeg -8.515167 -12.056530 9.907240
RightLeg 7.403938 -0.000000 -0.000000
RightFoot -25.135918 -26.709112 16.724890
RightToeBase 22.043884 -0.000000 -0.000000
